# xmcd
#
# Track frame offsets:
#	150
#	19660
#	39618
#	51025
#	60835
#	71435
#	94078
#	101943
#	112835
#	125788
#
# Disc length: 1831 seconds
#
# Revision: 0
# Processed by: cddbd v1.5PL3 Copyright (c) Steve Scherf et al.
# Submitted via: dBpowerAMP V4.0
#
DISCID=8007250a
DTITLE=Marty Robbins - El Paso City
DYEAR=1976
DGENRE=Country
TTITLE0=El Paso City
TTITLE1=Ava Maria Morales
TTITLE2=I'm Gonna Miss You When You Go
TTITLE3=Kin to the Wind
TTITLE4=Way Out There
TTITLE5=The Ballad of Bill Thaxton
TTITLE6=Trail Dreamin'
TTITLE7=I Did What I Did for Maria
TTITLE8=She's Just a Drifter
TTITLE9=Among my Souveniers
EXTD=Album remastered in 1993
EXTT0=
EXTT1=
EXTT2=
EXTT3=
EXTT4=
EXTT5=
EXTT6=
EXTT7=
EXTT8=
EXTT9=
PLAYORDER=
